<?xml version="1.0" encoding="UTF-8"?>
<svg width="24px" height="24px" viewBox="0 0 24 24" version="1.1" xmlns="http://www.w3.org/2000/svg" xmlns:xlink="http://www.w3.org/1999/xlink">
    <title>network-display-failed-dark</title>
    <g id="network-display-failed-dark" stroke="none" stroke-width="1" fill="none" fill-rule="evenodd">
        <path d="M20,9 C21.1045695,9 22,9.8954305 22,11 L22,19 C22,20.1045695 21.1045695,21 20,21 L7,21 C5.8954305,21 5,20.1045695 5,19 L5,11 C5,9.8954305 5.8954305,9 7,9 L20,9 Z M20,10 L7,10 C6.44771525,10 6,10.4477153 6,11 L6,19 C6,19.5522847 6.44771525,20 7,20 L20,20 C20.5522847,20 21,19.5522847 21,19 L21,11 C21,10.4477153 20.5522847,10 20,10 Z M16,4 C17.1045695,4 18,4.8954305 18,6 L18,8 L17,8 L17,6 C17,5.44771525 16.5522847,5 16,5 L3,5 C2.44771525,5 2,5.44771525 2,6 L2,14 C2,14.5522847 2.44771525,15 3,15 L4,15 L4,16 L3,16 C1.8954305,16 1,15.1045695 1,14 L1,6 C1,4.8954305 1.8954305,4 3,4 L16,4 Z" id="形状结合" fill="#000000"></path>
    </g>
</svg>