<?xml version="1.0" encoding="UTF-8"?>
<svg width="24px" height="24px" viewBox="0 0 24 24" version="1.1" xmlns="http://www.w3.org/2000/svg" xmlns:xlink="http://www.w3.org/1999/xlink">
    <title>network-display-succeed</title>
    <g id="network-display-succeed" stroke="none" stroke-width="1" fill="none" fill-rule="evenodd">
        <path d="M20,9 C21.1045695,9 22,9.8954305 22,11 L22,19 C22,20.1045695 21.1045695,21 20,21 L7,21 C5.8954305,21 5,20.1045695 5,19 L5,11 C5,9.8954305 5.8954305,9 7,9 L20,9 Z M16,4 C17.1045695,4 18,4.8954305 18,6 L18,8 L7,8 C5.40231912,8 4.09633912,9.24891996 4.00509269,10.8237272 L4,11 L4,16 L3,16 C1.8954305,16 1,15.1045695 1,14 L1,6 C1,4.8954305 1.8954305,4 3,4 L16,4 Z" id="形状" fill="#FFFFFF" fill-rule="nonzero"></path>
    </g>
</svg>