<?xml version="1.0" encoding="UTF-8"?>
<svg width="16px" height="16px" viewBox="0 0 16 16" version="1.1" xmlns="http://www.w3.org/2000/svg" xmlns:xlink="http://www.w3.org/1999/xlink">
    <title>network-display-failed</title>
    <g id="network-display-failed" stroke="none" stroke-width="1" fill="none" fill-rule="evenodd">
        <g id="ICON-/-TrayICON-/-Mirror" transform="translate(1, 2)" fill="#FFFFFF" fill-rule="nonzero">
            <path d="M12.2857143,4 C13.2324881,4 14,4.7163444 14,5.6 L14,10.4 C14,11.2836556 13.2324881,12 12.2857143,12 L4.71428571,12 C3.76751186,12 3,11.2836556 3,10.4 L3,5.6 C3,4.7163444 3.76751186,4 4.71428571,4 L12.2857143,4 Z M12.2857143,5 L4.71428571,5 C4.30496753,5 4,5.28463636 4,5.6 L4,10.4 C4,10.7153636 4.30496753,11 4.71428571,11 L12.2857143,11 C12.6950325,11 13,10.7153636 13,10.4 L13,5.6 C13,5.28463636 12.6950325,5 12.2857143,5 Z M9.28571429,0 C10.2324881,0 11,0.7163444 11,1.6 L11,3 L10,3 L10,1.6 C10,1.28463636 9.69503247,1 9.28571429,1 L1.71428571,1 C1.30496753,1 1,1.28463636 1,1.6 L1,6.4 C1,6.71536364 1.30496753,7 1.71428571,7 L2,7 L2,8 L1.71428571,8 C0.767511857,8 0,7.2836556 0,6.4 L0,1.6 C0,0.7163444 0.767511857,0 1.71428571,0 L9.28571429,0 Z" id="形状结合"></path>
        </g>
    </g>
</svg>